<svg width="323" height="137" viewBox="0 0 323 137" fill="none" xmlns="http://www.w3.org/2000/svg">
<path d="M1.96 204C1 204 0.520001 203.52 0.520001 202.56L1.096 4.70399C1.096 3.93599 1.48 3.55199 2.248 3.55199L56.104 3.26399C66.664 3.07199 76.264 5.568 84.904 10.752C93.736 15.936 100.744 22.944 105.928 31.776C111.112 40.416 113.704 50.016 113.704 60.576V143.232C113.704 154.368 111.016 164.544 105.64 173.76C100.264 182.784 93.064 189.984 84.04 195.36C75.016 200.736 64.84 203.52 53.512 203.712L1.96 204ZM35.656 168.576H53.512C60.616 168.576 66.568 166.08 71.368 161.088C76.36 156.096 78.856 150.144 78.856 143.232V60.288C78.856 54.144 76.552 48.864 71.944 44.448C67.528 39.84 62.248 37.632 56.104 37.824L35.944 38.112L35.656 168.576ZM185.324 206.88C174.956 206.88 165.452 204.288 156.812 199.104C148.364 193.728 141.548 186.72 136.364 178.08C131.372 169.248 128.876 159.552 128.876 148.992V135.744C128.876 134.784 129.356 134.304 130.316 134.304H162.572C163.34 134.304 163.724 134.784 163.724 135.744V148.992C163.724 155.328 165.836 160.8 170.06 165.408C174.284 169.824 179.372 172.032 185.324 172.032C191.276 172.032 196.364 169.728 200.588 165.12C204.812 160.512 206.924 155.136 206.924 148.992C206.924 141.888 202.316 135.744 193.1 130.56C190.028 128.832 185.228 126.144 178.7 122.496C172.172 118.848 166.028 115.392 160.268 112.128C149.708 105.984 141.836 98.304 136.652 89.088C131.66 79.68 129.164 69.12 129.164 57.408C129.164 46.656 131.756 37.056 136.94 28.608C142.124 19.968 148.94 13.152 157.388 8.16C166.028 3.16799 175.34 0.671991 185.324 0.671991C195.5 0.671991 204.812 3.26399 213.26 8.44799C221.9 13.44 228.716 20.256 233.708 28.896C238.892 37.344 241.484 46.848 241.484 57.408V81.024C241.484 81.792 241.1 82.176 240.332 82.176H208.076C207.308 82.176 206.924 81.792 206.924 81.024L206.636 57.408C206.636 50.688 204.524 45.216 200.3 40.992C196.076 36.768 191.084 34.656 185.324 34.656C179.372 34.656 174.284 36.96 170.06 41.568C165.836 45.984 163.724 51.264 163.724 57.408C163.724 63.744 165.068 69.024 167.756 73.248C170.444 77.472 175.34 81.504 182.444 85.344C183.404 85.92 185.228 86.976 187.916 88.512C190.796 89.856 193.868 91.488 197.132 93.408C200.396 95.136 203.276 96.672 205.772 98.016C208.46 99.36 210.092 100.224 210.668 100.608C220.268 105.984 227.852 112.608 233.42 120.48C238.988 128.16 241.772 137.664 241.772 148.992C241.772 159.936 239.18 169.824 233.996 178.656C229.004 187.296 222.188 194.208 213.548 199.392C205.1 204.384 195.692 206.88 185.324 206.88ZM314.793 206.88C304.233 206.88 294.633 204.288 285.993 199.104C277.545 193.728 270.825 186.624 265.833 177.792C260.841 168.96 258.345 159.072 258.345 148.128L258.633 58.272C258.633 47.712 261.033 38.112 265.833 29.472C270.825 20.64 277.545 13.632 285.993 8.44799C294.633 3.07199 304.233 0.383995 314.793 0.383995C325.353 0.383995 334.857 2.976 343.305 8.16C351.753 13.344 358.473 20.352 363.465 29.184C368.457 37.824 370.953 47.52 370.953 58.272V71.52C370.953 72.288 370.569 72.672 369.801 72.672H337.545C336.777 72.672 336.393 72.288 336.393 71.52V58.272C336.393 51.936 334.281 46.464 330.057 41.856C326.025 37.248 320.937 34.944 314.793 34.944C307.881 34.944 302.601 37.344 298.953 42.144C295.305 46.752 293.481 52.128 293.481 58.272V148.128C293.481 155.232 295.497 160.992 299.529 165.408C303.753 169.824 308.841 172.032 314.793 172.032C320.937 172.032 326.025 169.632 330.057 164.832C334.281 159.84 336.393 154.272 336.393 148.128V134.88C336.393 134.112 336.777 133.728 337.545 133.728H370.089C370.857 133.728 371.241 134.112 371.241 134.88V148.128C371.241 159.072 368.649 168.96 363.465 177.792C358.473 186.624 351.753 193.728 343.305 199.104C334.857 204.288 325.353 206.88 314.793 206.88Z" fill="white"/>
</svg>
