<svg width="637" height="683" viewBox="0 0 637 683" fill="none" xmlns="http://www.w3.org/2000/svg">
<path d="M340 60H623V669H14V60H63.5" stroke="white" stroke-width="27"/>
<path d="M90.4375 12.8438H100V81H90.4375V12.8438ZM95.2188 71.9062H134.219V81H95.2188V71.9062ZM163.188 81.7031C158.969 81.7031 155.359 80.875 152.359 79.2188C149.359 77.5625 147.062 75.1562 145.469 72C143.906 68.8125 143.125 64.9844 143.125 60.5156V52.5938C143.125 48.1875 143.906 44.4219 145.469 41.2969C147.062 38.1406 149.359 35.75 152.359 34.125C155.359 32.4688 158.969 31.6406 163.188 31.6406C167.406 31.6406 171.016 32.4688 174.016 34.125C177.016 35.75 179.297 38.1406 180.859 41.2969C182.453 44.4219 183.25 48.1875 183.25 52.5938V60.6562C183.25 65.0938 182.453 68.8906 180.859 72.0469C179.297 75.1719 177.016 77.5625 174.016 79.2188C171.016 80.875 167.406 81.7031 163.188 81.7031ZM163.188 72.6094C166.531 72.6094 169.109 71.5625 170.922 69.4688C172.766 67.375 173.688 64.4375 173.688 60.6562V52.5938C173.688 48.8125 172.766 45.8906 170.922 43.8281C169.109 41.7656 166.531 40.7344 163.188 40.7344C159.844 40.7344 157.25 41.7656 155.406 43.8281C153.594 45.8906 152.688 48.8125 152.688 52.5938V60.6562C152.688 64.4375 153.594 67.375 155.406 69.4688C157.25 71.5625 159.844 72.6094 163.188 72.6094ZM213.156 100.781C209.5 100.781 206.219 100.094 203.312 98.7188C200.438 97.375 198.203 95.4688 196.609 93L203.078 87.1406C204.328 88.8594 205.812 90.1875 207.531 91.125C209.281 92.0625 211.109 92.5312 213.016 92.5312C216.672 92.5312 219.5 91.5156 221.5 89.4844C223.5 87.4844 224.5 84.6406 224.5 80.9531V32.3438H234.062V79.5469C234.062 84.0156 233.234 87.8438 231.578 91.0312C229.953 94.2188 227.578 96.6406 224.453 98.2969C221.328 99.9531 217.562 100.781 213.156 100.781ZM212.266 81.8438C208.703 81.8438 205.656 81.0781 203.125 79.5469C200.625 77.9844 198.719 75.7188 197.406 72.75C196.094 69.7812 195.438 66.2188 195.438 62.0625V51.3281C195.438 47.1406 196.078 43.5625 197.359 40.5938C198.641 37.625 200.5 35.375 202.938 33.8438C205.406 32.2812 208.359 31.5 211.797 31.5C214.672 31.5 217.297 32.25 219.672 33.75C222.078 35.25 224.016 37.3594 225.484 40.0781L224.5 50.0156C224.5 47.9531 224.125 46.1875 223.375 44.7188C222.625 43.25 221.531 42.1406 220.094 41.3906C218.688 40.6094 216.969 40.2188 214.938 40.2188C211.781 40.2188 209.328 41.2031 207.578 43.1719C205.859 45.1406 205 47.9062 205 51.4688V62.0625C205 65.5938 205.859 68.3281 207.578 70.2656C209.328 72.1719 211.781 73.125 214.938 73.125C216.969 73.125 218.688 72.7344 220.094 71.9531C221.531 71.1406 222.625 69.9844 223.375 68.4844C224.125 66.9844 224.5 65.1875 224.5 63.0938L225.156 73.3594C224.188 75.7656 222.594 77.7812 220.375 79.4062C218.188 81.0312 215.484 81.8438 212.266 81.8438ZM248.594 12.8438H258.156V22.4062H248.594V12.8438ZM248.594 32.3438H258.156V81H248.594V32.3438ZM272.688 32.3438H282.25V81H272.688V32.3438ZM302.219 51.5156C302.219 48.0781 301.328 45.4219 299.547 43.5469C297.766 41.6719 295.266 40.7344 292.047 40.7344C288.922 40.7344 286.5 41.5625 284.781 43.2188C283.094 44.875 282.25 47.2031 282.25 50.2031L281.266 40.8281C282.766 37.8906 284.719 35.625 287.125 34.0312C289.562 32.4375 292.25 31.6406 295.188 31.6406C300.469 31.6406 304.547 33.375 307.422 36.8438C310.328 40.2812 311.781 45.1562 311.781 51.4688V81H302.219V51.5156Z" fill="white"/>
</svg>
